<?xml version="1.0" encoding="UTF-8"?>
<svg id="Layer_1" xmlns="http://www.w3.org/2000/svg" xmlns:xlink="http://www.w3.org/1999/xlink" viewBox="0 0 352.83 349.9">
  <defs>
    <style>
      .cls-1 {
        fill: #494949;
      }

      .cls-2 {
        clip-path: url(#clippath-1);
      }

      .cls-3 {
        clip-path: url(#clippath-3);
      }

      .cls-4 {
        fill: #ff044d;
      }

      .cls-5 {
        fill: #ff8201;
      }

      .cls-6 {
        clip-path: url(#clippath-2);
      }

      .cls-7 {
        fill: #ffb54a;
      }

      .cls-8 {
        fill: #fc4600;
      }

      .cls-9 {
        clip-path: url(#clippath);
      }

      .cls-10 {
        fill: #be013a;
      }
    </style>
    <clipPath id="clippath">
      <path class="cls-1" d="M21.31,75.76c2.35-13.56,13.89-34.53,34.46-40.24C79.78,28.84,175.72,2.77,181.91,1.19c9.18-2.34,26.78-1.73,38.08,6.54,11.3,8.28,92.39,64.51,101.13,70.06,14.39,9.14,29.93,29.75,26.12,51.41-3.87,21.99-24.96,128.07-26.27,134.15-3.81,17.79-11.36,33.66-31.93,40.71-17.45,5.98-112.87,37.45-120.88,39.98-17.91,5.65-35.1,2.67-46.89-6.68-11.79-9.36-94.85-72.95-101.51-78.66-11.67-10-22.17-25.87-19.29-46.32S21.31,75.76,21.31,75.76Z"/>
    </clipPath>
    <clipPath id="clippath-1">
      <path class="cls-5" d="M112.77,299.86l-78.05-61.22c-10.89-8.54-16.26-22.28-14.01-35.85l17.19-103.77c1.42-8.6,11.47-12.69,18.59-7.56l79.61,57.24c12.03,8.65,18.06,23.32,15.55,37.82l-18.29,105.56c-1.65,9.5-12.94,13.78-20.58,7.79Z"/>
    </clipPath>
    <clipPath id="clippath-2">
      <path class="cls-7" d="M163.95,120.46l-82.49-61.19c-5.91-4.38-4.22-13.57,2.85-15.57l94.6-26.79c12.76-3.61,26.51-1.22,37.3,6.49l81.14,58c5.63,4.02,4.3,12.67-2.27,14.81l-93.23,30.42c-12.87,4.2-27.02,1.9-37.9-6.17Z"/>
    </clipPath>
    <clipPath id="clippath-3">
      <path class="cls-4" d="M185.56,312.26l91.52-30.48c13.07-4.35,22.75-15.37,25.31-28.83l19.84-104.4c1.77-9.32-7.02-17.24-16.19-14.58l-87.97,25.47c-15.65,4.53-27.28,17.56-29.92,33.52l-17.68,106.54c-1.42,8.53,6.84,15.51,15.09,12.76Z"/>
    </clipPath>
  </defs>
  <g>
    <path class="cls-1" d="M21.31,75.76c2.35-13.56,13.89-34.53,34.46-40.24C79.78,28.84,175.72,2.77,181.91,1.19c9.18-2.34,26.78-1.73,38.08,6.54,11.3,8.28,92.39,64.51,101.13,70.06,14.39,9.14,29.93,29.75,26.12,51.41-3.87,21.99-24.96,128.07-26.27,134.15-3.81,17.79-11.36,33.66-31.93,40.71-17.45,5.98-112.87,37.45-120.88,39.98-17.91,5.65-35.1,2.67-46.89-6.68-11.79-9.36-94.85-72.95-101.51-78.66-11.67-10-22.17-25.87-19.29-46.32S21.31,75.76,21.31,75.76Z"/>
    <g class="cls-9">
      <path d="M26.31,78.76c2.35-13.56,13.89-34.53,34.46-40.24,24.02-6.67,119.95-32.75,126.15-34.33,9.18-2.34,26.78-1.73,38.08,6.54,11.3,8.28,92.39,64.51,101.13,70.06,14.39,9.14,29.93,29.75,26.12,51.41-3.87,21.99-24.96,128.07-26.27,134.15-3.81,17.79-11.36,33.66-31.93,40.71-17.45,5.98-112.87,37.45-120.88,39.98-17.91,5.65-35.1,2.67-46.89-6.68-11.79-9.36-94.85-72.95-101.51-78.66-11.67-10-22.17-25.87-19.29-46.32S26.31,78.76,26.31,78.76Z"/>
    </g>
  </g>
  <g>
    <path class="cls-5" d="M112.77,299.86l-78.05-61.22c-10.89-8.54-16.26-22.28-14.01-35.85l17.19-103.77c1.42-8.6,11.47-12.69,18.59-7.56l79.61,57.24c12.03,8.65,18.06,23.32,15.55,37.82l-18.29,105.56c-1.65,9.5-12.94,13.78-20.58,7.79Z"/>
    <g class="cls-2">
      <path class="cls-8" d="M120.77,296.86l-78.05-61.22c-10.89-8.54-16.26-22.28-14.01-35.85l17.19-103.77c1.42-8.6,11.47-12.69,18.59-7.56l79.61,57.24c12.03,8.65,18.06,23.32,15.55,37.82l-18.29,105.56c-1.65,9.5-12.94,13.78-20.58,7.79Z"/>
    </g>
  </g>
  <g>
    <path class="cls-7" d="M163.95,120.46l-82.49-61.19c-5.91-4.38-4.22-13.57,2.85-15.57l94.6-26.79c12.76-3.61,26.51-1.22,37.3,6.49l81.14,58c5.63,4.02,4.3,12.67-2.27,14.81l-93.23,30.42c-12.87,4.2-27.02,1.9-37.9-6.17Z"/>
    <g class="cls-6">
      <path class="cls-5" d="M170.95,125.46l-82.49-61.19c-5.91-4.38-4.22-13.57,2.85-15.57l94.6-26.79c12.76-3.61,26.51-1.22,37.3,6.49l81.14,58c5.63,4.02,4.3,12.67-2.27,14.81l-93.23,30.42c-12.87,4.2-27.02,1.9-37.9-6.17Z"/>
    </g>
  </g>
  <g>
    <path class="cls-4" d="M185.56,312.26l91.52-30.48c13.07-4.35,22.75-15.37,25.31-28.83l19.84-104.4c1.77-9.32-7.02-17.24-16.19-14.58l-87.97,25.47c-15.65,4.53-27.28,17.56-29.92,33.52l-17.68,106.54c-1.42,8.53,6.84,15.51,15.09,12.76Z"/>
    <g class="cls-3">
      <path class="cls-10" d="M178.95,307.47l91.52-30.48c13.07-4.35,22.75-15.37,25.31-28.83l19.84-104.4c1.77-9.32-7.02-17.24-16.19-14.58l-87.97,25.47c-15.65,4.53-27.28,17.56-29.92,33.52l-17.68,106.54c-1.42,8.53,6.84,15.51,15.09,12.76Z"/>
    </g>
  </g>
  <ellipse cx="196.03" cy="34.67" rx="9.53" ry="19.57" transform="translate(128.4 221.9) rotate(-80.17)"/>
  <ellipse cx="190.5" cy="69.29" rx="9.53" ry="19.71" transform="translate(89.71 245.16) rotate(-80.17)"/>
  <ellipse cx="185.19" cy="105.73" rx="9.98" ry="20.26" transform="translate(49.39 270.15) rotate(-80.17)"/>
  <ellipse cx="247.99" cy="220.61" rx="19.78" ry="11.62" transform="translate(-77.47 285.74) rotate(-52.97)"/>
  <ellipse cx="125.97" cy="175.35" rx="12.47" ry="20.23" transform="translate(-50.37 50.77) rotate(-19.07)"/>
  <ellipse cx="85.97" cy="194.43" rx="11.96" ry="19.7" transform="translate(-58.77 38.72) rotate(-19.06)"/>
  <ellipse cx="60.37" cy="127.29" rx="11.87" ry="19.43" transform="translate(-38.26 26.69) rotate(-19.06)"/>
  <ellipse cx="46.61" cy="212.64" rx="11.5" ry="19.5" transform="translate(-66.81 26.83) rotate(-19.04)"/>
  <ellipse cx="111.45" cy="262.01" rx="11.81" ry="19.88" transform="translate(-79.38 50.69) rotate(-19.04)"/>
</svg>